<svg width="24" height="25" viewBox="0 0 24 25" fill="none" xmlns="http://www.w3.org/2000/svg">
<path d="M12 24.6382C18.5529 24.6382 24 19.2029 24 12.6382C24 6.08525 18.5411 0.638184 11.9882 0.638184C5.42347 0.638184 0 6.08525 0 12.6382C0 19.2029 5.43527 24.6382 12 24.6382ZM12 22.6382C6.44702 22.6382 2.0117 18.1911 2.0117 12.6382C2.0117 7.097 6.43527 2.63819 11.9882 2.63819C17.5293 2.63819 21.9881 7.097 22 12.6382C22.0118 18.1911 17.5411 22.6382 12 22.6382ZM9.92937 16.9676L16.2235 13.25C16.6823 12.9676 16.6705 12.3205 16.2235 12.0617L9.92937 8.32053C9.44703 8.03817 8.8117 8.2617 8.8117 8.79111V16.497C8.8117 17.0382 9.4117 17.2735 9.92937 16.9676Z" fill="#06173A"/>
</svg>
